<svg width="39" height="28" viewBox="0 0 39 28" fill="none" xmlns="http://www.w3.org/2000/svg">
<path d="M12.573 16.5325C12.573 16.5325 9.5504 18.6226 4.08165 16.443L4.09102 14.753V4.08101C4.09102 3.86917 4.12382 3.81739 4.39562 3.69499C4.39562 3.69499 8.36949 2.11797 11.6873 3.39842C11.6873 3.39842 14.1428 4.36818 14.4615 8.58613C14.4615 8.58613 14.9629 14.9131 12.573 16.5325ZM18.2104 7.19741C17.2545 1.19058 12.4605 0.380883 12.4605 0.380883C6.04984 -0.899569 0.496733 1.45891 0.496733 1.45891C0.0515478 1.66604 0.00468616 1.75549 0 2.10384C0 7.97415 0 13.8445 0 19.7101V28H4.09571V19.2723C11.7342 21.9932 15.3238 18.8439 15.3238 18.8439C19.7803 14.9743 18.2104 7.1927 18.2104 7.1927" fill="white"/>
<path d="M24.6962 19.97C25.0022 19.97 25.0653 19.8822 25.0653 19.5992C25.0556 15.4616 25.0605 11.3241 25.0556 7.18657C25.0556 6.12779 25.0459 5.06901 25.0362 4.01023C25.0362 3.64429 25.1187 3.53207 25.4782 3.43449C27.3141 2.95145 29.1744 2.73677 31.0686 2.95145C32.6034 3.1271 33.6525 3.90289 34.1625 5.33737C34.5122 6.32296 34.5948 7.34758 34.5948 8.37709C34.5948 12.1145 34.5948 15.852 34.5948 19.5894V19.9358H38.6601V19.5602C38.6601 15.5202 38.6601 11.4851 38.6601 7.44517C38.6601 6.806 38.6504 6.16683 38.5969 5.52765C38.4707 4.02975 37.8878 2.74165 36.6736 1.77557C35.8382 1.112 34.8765 0.692396 33.8419 0.428921C32.0886 -0.0150834 30.3109 -0.0687543 28.5138 0.0629833C26.1387 0.233754 23.8025 0.638725 21.5003 1.2291C21.0437 1.3462 21 1.40475 21 1.87315C21 7.78183 21 13.6856 21 19.5943V19.9554C22.2677 19.9554 23.4819 19.9554 24.6962 19.97Z" fill="white"/>
</svg>
